<svg xmlns="http://www.w3.org/2000/svg" width="198" height="8" viewBox="0 0 198 8" fill="none">
  <path d="M0.83337 2.98593C0.825599 4.45867 2.01319 5.65886 3.48593 5.66663C4.95867 5.6744 6.15886 4.48681 6.16663 3.01407C6.1744 1.54133 4.98681 0.341142 3.51407 0.33337C2.04133 0.325599 0.841142 1.51319 0.83337 2.98593ZM197.352 4.37652C197.548 4.18229 197.55 3.86571 197.355 3.66942L194.19 0.470697C193.996 0.274408 193.679 0.272737 193.483 0.466966C193.287 0.661195 193.285 0.977773 193.479 1.17406L196.293 4.01738L193.449 6.83084C193.253 7.02507 193.252 7.34165 193.446 7.53794C193.64 7.73423 193.957 7.7359 194.153 7.54167L197.352 4.37652ZM4.50517 3.50531C4.78131 3.50677 5.00635 3.2841 5.0078 3.00796C5.00926 2.73182 4.78659 2.50678 4.51045 2.50533L4.50517 3.50531ZM6.52607 2.51596C6.24994 2.5145 6.0249 2.73718 6.02344 3.01332C6.02199 3.28945 6.24466 3.51449 6.5208 3.51595L6.52607 2.51596ZM8.53642 3.52658C8.81256 3.52804 9.0376 3.30537 9.03905 3.02923C9.04051 2.75309 8.81784 2.52806 8.5417 2.5266L8.53642 3.52658ZM10.5573 2.53723C10.2812 2.53578 10.0561 2.75845 10.0547 3.03459C10.0532 3.31073 10.2759 3.53576 10.552 3.53722L10.5573 2.53723ZM12.5677 3.54786C12.8438 3.54931 13.0688 3.32664 13.0703 3.0505C13.0718 2.77436 12.8491 2.54933 12.5729 2.54787L12.5677 3.54786ZM14.5886 2.55851C14.3124 2.55705 14.0874 2.77972 14.0859 3.05586C14.0845 3.332 14.3072 3.55704 14.5833 3.55849L14.5886 2.55851ZM16.5989 3.56913C16.8751 3.57059 17.1001 3.34791 17.1015 3.07178C17.103 2.79564 16.8803 2.5706 16.6042 2.56914L16.5989 3.56913ZM18.6198 2.57978C18.3437 2.57832 18.1186 2.801 18.1172 3.07714C18.1157 3.35327 18.3384 3.57831 18.6145 3.57977L18.6198 2.57978ZM20.6302 3.5904C20.9063 3.59186 21.1313 3.36919 21.1328 3.09305C21.1343 2.81691 20.9116 2.59187 20.6354 2.59042L20.6302 3.5904ZM22.6511 2.60105C22.3749 2.5996 22.1499 2.82227 22.1484 3.09841C22.147 3.37455 22.3696 3.59958 22.6458 3.60104L22.6511 2.60105ZM24.6614 3.61168C24.9375 3.61313 25.1626 3.39046 25.164 3.11432C25.1655 2.83818 24.9428 2.61315 24.6667 2.61169L24.6614 3.61168ZM26.6823 2.62233C26.4062 2.62087 26.1811 2.84354 26.1797 3.11968C26.1782 3.39582 26.4009 3.62086 26.677 3.62231L26.6823 2.62233ZM28.6927 3.63295C28.9688 3.63441 29.1938 3.41173 29.1953 3.1356C29.1967 2.85946 28.9741 2.63442 28.6979 2.63296L28.6927 3.63295ZM30.7136 2.6436C30.4374 2.64214 30.2124 2.86482 30.2109 3.14095C30.2095 3.41709 30.4321 3.64213 30.7083 3.64359L30.7136 2.6436ZM32.7239 3.65422C33 3.65568 33.2251 3.43301 33.2265 3.15687C33.228 2.88073 33.0053 2.65569 32.7292 2.65424L32.7239 3.65422ZM34.7448 2.66487C34.4687 2.66342 34.2436 2.88609 34.2422 3.16223C34.2407 3.43837 34.4634 3.6634 34.7395 3.66486L34.7448 2.66487ZM36.7552 3.6755C37.0313 3.67695 37.2563 3.45428 37.2578 3.17814C37.2592 2.902 37.0366 2.67697 36.7604 2.67551L36.7552 3.6755ZM38.7761 2.68615C38.4999 2.68469 38.2749 2.90736 38.2734 3.1835C38.272 3.45964 38.4946 3.68468 38.7708 3.68613L38.7761 2.68615ZM40.7864 3.69677C41.0625 3.69823 41.2876 3.47555 41.289 3.19941C41.2905 2.92328 41.0678 2.69824 40.7917 2.69678L40.7864 3.69677ZM42.8073 2.70742C42.5312 2.70596 42.3061 2.92864 42.3047 3.20477C42.3032 3.48091 42.5259 3.70595 42.802 3.70741L42.8073 2.70742ZM44.8176 3.71804C45.0938 3.7195 45.3188 3.49683 45.3203 3.22069C45.3217 2.94455 45.0991 2.71951 44.8229 2.71806L44.8176 3.71804ZM46.8385 2.72869C46.5624 2.72724 46.3374 2.94991 46.3359 3.22605C46.3345 3.50219 46.5571 3.72722 46.8333 3.72868L46.8385 2.72869ZM48.8489 3.73932C49.125 3.74077 49.3501 3.5181 49.3515 3.24196C49.353 2.96582 49.1303 2.74079 48.8542 2.73933L48.8489 3.73932ZM50.8698 2.74997C50.5937 2.74851 50.3686 2.97118 50.3672 3.24732C50.3657 3.52346 50.5884 3.74849 50.8645 3.74995L50.8698 2.74997ZM52.8801 3.76059C53.1563 3.76205 53.3813 3.53937 53.3828 3.26323C53.3842 2.9871 53.1616 2.76206 52.8854 2.7606L52.8801 3.76059ZM54.901 2.77124C54.6249 2.76978 54.3999 2.99245 54.3984 3.26859C54.397 3.54473 54.6196 3.76977 54.8958 3.77122L54.901 2.77124ZM56.9114 3.78186C57.1875 3.78332 57.4126 3.56065 57.414 3.28451C57.4155 3.00837 57.1928 2.78333 56.9167 2.78188L56.9114 3.78186ZM58.9323 2.79251C58.6561 2.79105 58.4311 3.01373 58.4297 3.28987C58.4282 3.566 58.6509 3.79104 58.927 3.7925L58.9323 2.79251ZM60.9426 3.80313C61.2188 3.80459 61.4438 3.58192 61.4453 3.30578C61.4467 3.02964 61.2241 2.80461 60.9479 2.80315L60.9426 3.80313ZM62.9635 2.81378C62.6874 2.81233 62.4624 3.035 62.4609 3.31114C62.4594 3.58728 62.6821 3.81231 62.9583 3.81377L62.9635 2.81378ZM64.9739 3.82441C65.25 3.82586 65.4751 3.60319 65.4765 3.32705C65.478 3.05091 65.2553 2.82588 64.9792 2.82442L64.9739 3.82441ZM66.9948 2.83506C66.7186 2.8336 66.4936 3.05627 66.4921 3.33241C66.4907 3.60855 66.7134 3.83359 66.9895 3.83504L66.9948 2.83506ZM69.0051 3.84568C69.2813 3.84714 69.5063 3.62446 69.5078 3.34833C69.5092 3.07219 69.2865 2.84715 69.0104 2.84569L69.0051 3.84568ZM71.026 2.85633C70.7499 2.85487 70.5249 3.07755 70.5234 3.35369C70.5219 3.62982 70.7446 3.85486 71.0208 3.85632L71.026 2.85633ZM73.0364 3.86695C73.3125 3.86841 73.5376 3.64574 73.539 3.3696C73.5405 3.09346 73.3178 2.86842 73.0417 2.86697L73.0364 3.86695ZM75.0573 2.8776C74.7812 2.87615 74.5561 3.09882 74.5547 3.37496C74.5532 3.6511 74.7759 3.87613 75.052 3.87759L75.0573 2.8776ZM77.0676 3.88823C77.3438 3.88968 77.5688 3.66701 77.5703 3.39087C77.5717 3.11473 77.3491 2.8897 77.0729 2.88824L77.0676 3.88823ZM79.0885 2.89888C78.8124 2.89742 78.5874 3.12009 78.5859 3.39623C78.5845 3.67237 78.8071 3.89741 79.0833 3.89886L79.0885 2.89888ZM81.0989 3.9095C81.375 3.91096 81.6001 3.68828 81.6015 3.41215C81.603 3.13601 81.3803 2.91097 81.1042 2.90951L81.0989 3.9095ZM83.1198 2.92015C82.8437 2.91869 82.6186 3.14137 82.6172 3.4175C82.6157 3.69364 82.8384 3.91868 83.1145 3.92014L83.1198 2.92015ZM85.1301 3.93077C85.4063 3.93223 85.6313 3.70956 85.6328 3.43342C85.6342 3.15728 85.4116 2.93224 85.1354 2.93079L85.1301 3.93077ZM87.1511 2.94142C86.8749 2.93997 86.6499 3.16264 86.6484 3.43878C86.647 3.71492 86.8696 3.93995 87.1458 3.94141L87.1511 2.94142ZM89.1614 3.95205C89.4375 3.9535 89.6626 3.73083 89.664 3.45469C89.6655 3.17855 89.4428 2.95352 89.1667 2.95206L89.1614 3.95205ZM91.1823 2.9627C90.9062 2.96124 90.6811 3.18391 90.6797 3.46005C90.6782 3.73619 90.9009 3.96123 91.177 3.96268L91.1823 2.9627ZM93.1927 3.97332C93.4688 3.97478 93.6938 3.7521 93.6953 3.47596C93.6967 3.19983 93.4741 2.97479 93.1979 2.97333L93.1927 3.97332ZM95.2136 2.98397C94.9374 2.98251 94.7124 3.20519 94.7109 3.48132C94.7095 3.75746 94.9321 3.9825 95.2083 3.98396L95.2136 2.98397ZM97.2239 3.99459C97.5 3.99605 97.7251 3.77338 97.7265 3.49724C97.728 3.2211 97.5053 2.99606 97.2292 2.99461L97.2239 3.99459ZM99.2448 3.00524C98.9687 3.00379 98.7436 3.22646 98.7422 3.5026C98.7407 3.77874 98.9634 4.00377 99.2395 4.00523L99.2448 3.00524ZM101.255 4.01587C101.531 4.01732 101.756 3.79465 101.758 3.51851C101.759 3.24237 101.537 3.01734 101.26 3.01588L101.255 4.01587ZM103.276 3.02652C103 3.02506 102.775 3.24773 102.773 3.52387C102.772 3.80001 102.995 4.02504 103.271 4.0265L103.276 3.02652ZM105.286 4.03714C105.563 4.0386 105.788 3.81592 105.789 3.53978C105.791 3.26365 105.568 3.03861 105.292 3.03715L105.286 4.03714ZM107.307 3.04779C107.031 3.04633 106.806 3.26901 106.805 3.54514C106.803 3.82128 107.026 4.04632 107.302 4.04778L107.307 3.04779ZM109.318 4.05841C109.594 4.05987 109.819 3.8372 109.82 3.56106C109.822 3.28492 109.599 3.05988 109.323 3.05843L109.318 4.05841ZM111.339 3.06906C111.062 3.0676 110.837 3.29028 110.836 3.56642C110.834 3.84256 111.057 4.06759 111.333 4.06905L111.339 3.06906ZM113.349 4.07968C113.625 4.08114 113.85 3.85847 113.852 3.58233C113.853 3.30619 113.63 3.08116 113.354 3.0797L113.349 4.07968ZM115.37 3.09034C115.094 3.08888 114.869 3.31155 114.867 3.58769C114.866 3.86383 115.088 4.08886 115.365 4.09032L115.37 3.09034ZM117.38 4.10096C117.656 4.10242 117.881 3.87974 117.883 3.6036C117.884 3.32746 117.662 3.10243 117.385 3.10097L117.38 4.10096ZM119.401 3.11161C119.125 3.11015 118.9 3.33282 118.898 3.60896C118.897 3.8851 119.12 4.11014 119.396 4.11159L119.401 3.11161ZM121.411 4.12223C121.688 4.12369 121.913 3.90101 121.914 3.62488C121.916 3.34874 121.693 3.1237 121.417 3.12224L121.411 4.12223ZM123.432 3.13288C123.156 3.13142 122.931 3.3541 122.93 3.63024C122.928 3.90637 123.151 4.13141 123.427 4.13287L123.432 3.13288ZM125.443 4.1435C125.719 4.14496 125.944 3.92229 125.945 3.64615C125.947 3.37001 125.724 3.14498 125.448 3.14352L125.443 4.1435ZM127.464 3.15415C127.187 3.1527 126.962 3.37537 126.961 3.65151C126.96 3.92765 127.182 4.15268 127.458 4.15414L127.464 3.15415ZM129.474 4.16478C129.75 4.16623 129.975 3.94356 129.977 3.66742C129.978 3.39128 129.755 3.16625 129.479 3.16479L129.474 4.16478ZM131.495 3.17543C131.219 3.17397 130.994 3.39664 130.992 3.67278C130.991 3.94892 131.213 4.17396 131.49 4.17541L131.495 3.17543ZM133.505 4.18605C133.781 4.18751 134.006 3.96483 134.008 3.6887C134.009 3.41256 133.787 3.18752 133.51 3.18606L133.505 4.18605ZM135.526 3.1967C135.25 3.19524 135.025 3.41792 135.023 3.69406C135.022 3.97019 135.245 4.19523 135.521 4.19669L135.526 3.1967ZM137.536 4.20732C137.813 4.20878 138.038 3.98611 138.039 3.70997C138.041 3.43383 137.818 3.20879 137.542 3.20734L137.536 4.20732ZM139.557 3.21797C139.281 3.21652 139.056 3.43919 139.055 3.71533C139.053 3.99147 139.276 4.2165 139.552 4.21796L139.557 3.21797ZM141.568 4.2286C141.844 4.23005 142.069 4.00738 142.07 3.73124C142.072 3.4551 141.849 3.23007 141.573 3.22861L141.568 4.2286ZM143.589 3.23925C143.312 3.23779 143.087 3.46046 143.086 3.7366C143.085 4.01274 143.307 4.23778 143.583 4.23923L143.589 3.23925ZM145.599 4.24987C145.875 4.25133 146.1 4.02865 146.102 3.75252C146.103 3.47638 145.88 3.25134 145.604 3.24988L145.599 4.24987ZM147.62 3.26052C147.344 3.25906 147.119 3.48174 147.117 3.75787C147.116 4.03401 147.338 4.25905 147.615 4.26051L147.62 3.26052ZM149.63 4.27114C149.906 4.2726 150.131 4.04993 150.133 3.77379C150.134 3.49765 149.912 3.27261 149.636 3.27116L149.63 4.27114ZM151.651 3.28179C151.375 3.28034 151.15 3.50301 151.148 3.77915C151.147 4.05529 151.37 4.28032 151.646 4.28178L151.651 3.28179ZM153.661 4.29242C153.938 4.29387 154.163 4.0712 154.164 3.79506C154.166 3.51892 153.943 3.29389 153.667 3.29243L153.661 4.29242ZM155.682 3.30307C155.406 3.30161 155.181 3.52428 155.18 3.80042C155.178 4.07656 155.401 4.3016 155.677 4.30305L155.682 3.30307ZM157.693 4.31369C157.969 4.31515 158.194 4.09247 158.195 3.81633C158.197 3.5402 157.974 3.31516 157.698 3.3137L157.693 4.31369ZM159.714 3.32434C159.438 3.32288 159.212 3.54556 159.211 3.82169C159.21 4.09783 159.432 4.32287 159.708 4.32433L159.714 3.32434ZM161.724 4.33496C162 4.33642 162.225 4.11375 162.227 3.83761C162.228 3.56147 162.005 3.33643 161.729 3.33498L161.724 4.33496ZM163.745 3.34561C163.469 3.34416 163.244 3.56683 163.242 3.84297C163.241 4.11911 163.463 4.34414 163.74 4.3456L163.745 3.34561ZM165.755 4.35624C166.031 4.35769 166.256 4.13502 166.258 3.85888C166.259 3.58274 166.037 3.35771 165.761 3.35625L165.755 4.35624ZM167.776 3.36689C167.5 3.36543 167.275 3.5881 167.274 3.86424C167.272 4.14038 167.495 4.36541 167.771 4.36687L167.776 3.36689ZM169.787 4.37751C170.063 4.37897 170.288 4.15629 170.289 3.88015C170.291 3.60402 170.068 3.37898 169.792 3.37752L169.787 4.37751ZM171.807 3.38816C171.531 3.3867 171.306 3.60937 171.305 3.88551C171.303 4.16165 171.526 4.38669 171.802 4.38814L171.807 3.38816ZM173.818 4.39878C174.094 4.40024 174.319 4.17757 174.32 3.90143C174.322 3.62529 174.099 3.40025 173.823 3.3988L173.818 4.39878ZM175.839 3.40943C175.563 3.40797 175.337 3.63065 175.336 3.90679C175.335 4.18293 175.557 4.40796 175.833 4.40942L175.839 3.40943ZM177.849 4.42005C178.125 4.42151 178.35 4.19884 178.352 3.9227C178.353 3.64656 178.13 3.42153 177.854 3.42007L177.849 4.42005ZM179.87 3.43071C179.594 3.42925 179.369 3.65192 179.367 3.92806C179.366 4.2042 179.588 4.42923 179.865 4.43069L179.87 3.43071ZM181.88 4.44133C182.156 4.44278 182.381 4.22011 182.383 3.94397C182.384 3.66783 182.162 3.4428 181.886 3.44134L181.88 4.44133ZM183.901 3.45198C183.625 3.45052 183.4 3.67319 183.399 3.94933C183.397 4.22547 183.62 4.45051 183.896 4.45196L183.901 3.45198ZM185.912 4.4626C186.188 4.46406 186.413 4.24138 186.414 3.96525C186.416 3.68911 186.193 3.46407 185.917 3.46261L185.912 4.4626ZM187.932 3.47325C187.656 3.47179 187.431 3.69447 187.43 3.97061C187.428 4.24674 187.651 4.47178 187.927 4.47324L187.932 3.47325ZM189.943 4.48387C190.219 4.48533 190.444 4.26266 190.445 3.98652C190.447 3.71038 190.224 3.48534 189.948 3.48389L189.943 4.48387ZM191.964 3.49452C191.688 3.49307 191.463 3.71574 191.461 3.99188C191.46 4.26802 191.682 4.49305 191.958 4.49451L191.964 3.49452ZM193.974 4.50515C194.25 4.5066 194.475 4.28393 194.477 4.00779C194.478 3.73165 194.255 3.50662 193.979 3.50516L193.974 4.50515ZM195.995 3.5158C195.719 3.51434 195.494 3.73701 195.492 4.01315C195.491 4.28929 195.714 4.51433 195.99 4.51578L195.995 3.5158ZM3.49736 3.49999L4.50517 3.50531L4.51045 2.50533L3.50264 2.50001L3.49736 3.49999ZM6.5208 3.51595L8.53642 3.52658L8.5417 2.5266L6.52607 2.51596L6.5208 3.51595ZM10.552 3.53722L12.5677 3.54786L12.5729 2.54787L10.5573 2.53723L10.552 3.53722ZM14.5833 3.55849L16.5989 3.56913L16.6042 2.56914L14.5886 2.55851L14.5833 3.55849ZM18.6145 3.57977L20.6302 3.5904L20.6354 2.59042L18.6198 2.57978L18.6145 3.57977ZM22.6458 3.60104L24.6614 3.61168L24.6667 2.61169L22.6511 2.60105L22.6458 3.60104ZM26.677 3.62231L28.6927 3.63295L28.6979 2.63296L26.6823 2.62233L26.677 3.62231ZM30.7083 3.64359L32.7239 3.65422L32.7292 2.65424L30.7136 2.6436L30.7083 3.64359ZM34.7395 3.66486L36.7552 3.6755L36.7604 2.67551L34.7448 2.66487L34.7395 3.66486ZM38.7708 3.68613L40.7864 3.69677L40.7917 2.69678L38.7761 2.68615L38.7708 3.68613ZM42.802 3.70741L44.8176 3.71804L44.8229 2.71806L42.8073 2.70742L42.802 3.70741ZM46.8333 3.72868L48.8489 3.73932L48.8542 2.73933L46.8385 2.72869L46.8333 3.72868ZM50.8645 3.74995L52.8801 3.76059L52.8854 2.7606L50.8698 2.74997L50.8645 3.74995ZM54.8958 3.77122L56.9114 3.78186L56.9167 2.78188L54.901 2.77124L54.8958 3.77122ZM58.927 3.7925L60.9426 3.80313L60.9479 2.80315L58.9323 2.79251L58.927 3.7925ZM62.9583 3.81377L64.9739 3.82441L64.9792 2.82442L62.9635 2.81378L62.9583 3.81377ZM66.9895 3.83504L69.0051 3.84568L69.0104 2.84569L66.9948 2.83506L66.9895 3.83504ZM71.0208 3.85632L73.0364 3.86695L73.0417 2.86697L71.026 2.85633L71.0208 3.85632ZM75.052 3.87759L77.0676 3.88823L77.0729 2.88824L75.0573 2.8776L75.052 3.87759ZM79.0833 3.89886L81.0989 3.9095L81.1042 2.90951L79.0885 2.89888L79.0833 3.89886ZM83.1145 3.92014L85.1301 3.93077L85.1354 2.93079L83.1198 2.92015L83.1145 3.92014ZM87.1458 3.94141L89.1614 3.95205L89.1667 2.95206L87.1511 2.94142L87.1458 3.94141ZM91.177 3.96268L93.1927 3.97332L93.1979 2.97333L91.1823 2.9627L91.177 3.96268ZM95.2083 3.98396L97.2239 3.99459L97.2292 2.99461L95.2136 2.98397L95.2083 3.98396ZM99.2395 4.00523L101.255 4.01587L101.26 3.01588L99.2448 3.00524L99.2395 4.00523ZM103.271 4.0265L105.286 4.03714L105.292 3.03715L103.276 3.02652L103.271 4.0265ZM107.302 4.04778L109.318 4.05841L109.323 3.05843L107.307 3.04779L107.302 4.04778ZM111.333 4.06905L113.349 4.07968L113.354 3.0797L111.339 3.06906L111.333 4.06905ZM115.365 4.09032L117.38 4.10096L117.385 3.10097L115.37 3.09034L115.365 4.09032ZM119.396 4.11159L121.411 4.12223L121.417 3.12224L119.401 3.11161L119.396 4.11159ZM123.427 4.13287L125.443 4.1435L125.448 3.14352L123.432 3.13288L123.427 4.13287ZM127.458 4.15414L129.474 4.16478L129.479 3.16479L127.464 3.15415L127.458 4.15414ZM131.49 4.17541L133.505 4.18605L133.51 3.18606L131.495 3.17543L131.49 4.17541ZM135.521 4.19669L137.536 4.20732L137.542 3.20734L135.526 3.1967L135.521 4.19669ZM139.552 4.21796L141.568 4.2286L141.573 3.22861L139.557 3.21797L139.552 4.21796ZM143.583 4.23923L145.599 4.24987L145.604 3.24988L143.589 3.23925L143.583 4.23923ZM147.615 4.26051L149.63 4.27114L149.636 3.27116L147.62 3.26052L147.615 4.26051ZM151.646 4.28178L153.661 4.29242L153.667 3.29243L151.651 3.28179L151.646 4.28178ZM155.677 4.30305L157.693 4.31369L157.698 3.3137L155.682 3.30307L155.677 4.30305ZM159.708 4.32433L161.724 4.33496L161.729 3.33498L159.714 3.32434L159.708 4.32433ZM163.74 4.3456L165.755 4.35624L165.761 3.35625L163.745 3.34561L163.74 4.3456ZM167.771 4.36687L169.787 4.37751L169.792 3.37752L167.776 3.36689L167.771 4.36687ZM171.802 4.38814L173.818 4.39878L173.823 3.3988L171.807 3.38816L171.802 4.38814ZM175.833 4.40942L177.849 4.42005L177.854 3.42007L175.839 3.40943L175.833 4.40942ZM179.865 4.43069L181.88 4.44133L181.886 3.44134L179.87 3.43071L179.865 4.43069ZM183.896 4.45196L185.912 4.4626L185.917 3.46261L183.901 3.45198L183.896 4.45196ZM187.927 4.47324L189.943 4.48387L189.948 3.48389L187.932 3.47325L187.927 4.47324ZM191.958 4.49451L193.974 4.50515L193.979 3.50516L191.964 3.49452L191.958 4.49451ZM195.99 4.51578L196.997 4.5211L197.003 3.52111L195.995 3.5158L195.99 4.51578Z" fill="black"/>
</svg>