<svg xmlns="http://www.w3.org/2000/svg" width="187" height="145" viewBox="0 0 187 145" fill="none">
  <mask id="mask0_19_2559" style="mask-type:luminance" maskUnits="userSpaceOnUse" x="0" y="0" width="187" height="145">
    <path d="M186.026 0.759399H0.882996V144.799H186.026V0.759399Z" fill="white"/>
  </mask>
  <g mask="url(#mask0_19_2559)">
    <path d="M175.637 146.499L178.492 140.578" stroke="#231F20" stroke-width="0.3"/>
    <path d="M163.192 146.759L161.598 140.218" stroke="#231F20" stroke-width="0.3"/>
    <path d="M124.08 148.48L124.363 142.478" stroke="#231F20" stroke-width="0.3"/>
    <path d="M83.7091 145.279L80.0577 141.178" stroke="#231F20" stroke-width="0.3"/>
    <path d="M41.8718 145.559L45.2918 141.638" stroke="#231F20" stroke-width="0.3"/>
    <path d="M13.4318 148.22L9.16318 143.578" stroke="#231F20" stroke-width="0.3"/>
    <path d="M143.52 148.84L148.663 142.838" stroke="#231F20" stroke-width="0.3"/>
    <path d="M193.098 48.7725H185.383" stroke="#231F20" stroke-width="0.3"/>
    <path d="M190.526 80.2811L185.383 83.2819" stroke="#231F20" stroke-width="0.3"/>
    <path d="M15.6687 22.2653L8.59728 26.2664" stroke="#231F20" stroke-width="0.3"/>
    <path d="M11.8116 134.796L6.02591 138.297" stroke="#231F20" stroke-width="0.3"/>
    <path d="M189.24 14.7632L180.883 16.2636" stroke="#231F20" stroke-width="0.3"/>
    <path d="M186.026 38.2697L179.597 41.7706" stroke="#231F20" stroke-width="0.3"/>
    <path d="M193.097 48.7725H185.383" stroke="#231F20" stroke-width="0.3"/>
    <path d="M184.74 63.7766L177.669 60.2756" stroke="#231F20" stroke-width="0.3"/>
    <path d="M190.526 80.2811L185.383 83.2819" stroke="#231F20" stroke-width="0.3"/>
    <path d="M184.097 104.288L177.026 99.7865" stroke="#231F20" stroke-width="0.3"/>
    <path d="M189.24 126.294L178.312 124.793" stroke="#231F20" stroke-width="0.3"/>
    <path d="M164.169 122.793L158.383 126.294" stroke="#231F20" stroke-width="0.3"/>
    <path d="M185.383 90.7839H177.669" stroke="#231F20" stroke-width="0.3"/>
    <path d="M150.026 35.769L145.14 30.1274" stroke="#231F20" stroke-width="0.3"/>
    <path d="M72.883 32.7682L68.6144 27.6467" stroke="#231F20" stroke-width="0.3"/>
    <path d="M111.557 23.8857L116.315 18.5242" stroke="#231F20" stroke-width="0.3"/>
    <path d="M175.637 146.499L178.492 140.578" stroke="#231F20" stroke-width="0.3"/>
    <path d="M163.192 146.759L161.597 140.218" stroke="#231F20" stroke-width="0.3"/>
    <path d="M147.454 96.7856L142.569 91.144" stroke="#231F20" stroke-width="0.3"/>
    <path d="M125.983 39.8901L121.74 34.7687" stroke="#231F20" stroke-width="0.3"/>
    <path d="M124.08 148.48L124.363 142.478" stroke="#231F20" stroke-width="0.3"/>
    <path d="M105.129 141.418L109.886 136.056" stroke="#231F20" stroke-width="0.3"/>
    <path d="M83.7089 145.279L80.0575 141.178" stroke="#231F20" stroke-width="0.3"/>
    <path d="M130.252 82.3617L136.294 77.0403" stroke="#231F20" stroke-width="0.3"/>
    <path d="M41.8717 145.559L45.2916 141.638" stroke="#231F20" stroke-width="0.3"/>
    <path d="M24.6429 142.538L26.9829 134.096" stroke="#231F20" stroke-width="0.3"/>
    <path d="M13.4316 148.22L9.16299 143.578" stroke="#231F20" stroke-width="0.3"/>
    <path d="M70.4145 140.878L70.6973 134.896" stroke="#231F20" stroke-width="0.3"/>
    <path d="M19.526 11.2622L28.526 14.263" stroke="#231F20" stroke-width="0.3"/>
    <path d="M12.4545 42.2707L13.0974 35.7689" stroke="#231F20" stroke-width="0.3"/>
    <path d="M21.4544 88.2833L25.3116 95.7854" stroke="#231F20" stroke-width="0.3"/>
    <path d="M14.383 77.2802L20.1687 69.7782" stroke="#231F20" stroke-width="0.3"/>
    <path d="M76.0974 9.76184L70.3117 14.7632" stroke="#231F20" stroke-width="0.3"/>
    <path d="M87.0258 9.76184L95.383 15.2633" stroke="#231F20" stroke-width="0.3"/>
    <path d="M130.097 9.76184L138.454 13.7629" stroke="#231F20" stroke-width="0.3"/>
    <path d="M135.883 21.7651L130.74 28.2669" stroke="#231F20" stroke-width="0.3"/>
    <path d="M153.883 19.2644L166.74 14.7632" stroke="#231F20" stroke-width="0.3"/>
    <path d="M173.169 26.2664L166.74 29.7673" stroke="#231F20" stroke-width="0.3"/>
    <path d="M49.0973 10.262V16.2636" stroke="#231F20" stroke-width="0.3"/>
    <path d="M41.383 20.2646L33.0258 21.2649" stroke="#231F20" stroke-width="0.3"/>
    <path d="M52.3116 29.2672L53.5973 35.769" stroke="#231F20" stroke-width="0.3"/>
    <path d="M54.883 20.2647L63.883 18.7643" stroke="#231F20" stroke-width="0.3"/>
    <path d="M24.6688 43.7711L31.7402 39.77" stroke="#231F20" stroke-width="0.3"/>
    <path d="M20.1688 128.794L20.8117 120.792" stroke="#231F20" stroke-width="0.3"/>
    <path d="M19.526 112.29L25.3117 107.288" stroke="#231F20" stroke-width="0.3"/>
    <path d="M55.5259 132.295L49.0973 125.293" stroke="#231F20" stroke-width="0.3"/>
    <path d="M77.3829 57.7749L70.9543 61.2759" stroke="#231F20" stroke-width="0.3"/>
    <path d="M149.383 68.2778L142.312 65.277" stroke="#231F20" stroke-width="0.3"/>
    <path d="M69.6689 80.7813L60.026 79.2809" stroke="#231F20" stroke-width="0.3"/>
    <path d="M81.883 99.7865L76.7402 102.787" stroke="#231F20" stroke-width="0.3"/>
    <path d="M75.4545 123.793L68.3831 119.292" stroke="#231F20" stroke-width="0.3"/>
    <path d="M83.8115 132.295L78.6686 129.795" stroke="#231F20" stroke-width="0.3"/>
    <path d="M76.7401 110.289H69.0258" stroke="#231F20" stroke-width="0.3"/>
    <path d="M103.097 38.7698L96.6688 42.2707" stroke="#231F20" stroke-width="0.3"/>
    <path d="M110.169 49.2726H102.454" stroke="#231F20" stroke-width="0.3"/>
    <path d="M101.812 64.2767L94.7402 60.7758" stroke="#231F20" stroke-width="0.3"/>
    <path d="M99.8831 85.7826L97.9545 90.784" stroke="#231F20" stroke-width="0.3"/>
    <path d="M101.169 104.788L94.0973 100.287" stroke="#231F20" stroke-width="0.3"/>
    <path d="M102.454 120.792L97.3115 118.292" stroke="#231F20" stroke-width="0.3"/>
    <path d="M162.806 89.8237H155.091" stroke="#231F20" stroke-width="0.3"/>
    <path d="M58.0973 86.7828L64.5259 90.2838" stroke="#231F20" stroke-width="0.3"/>
    <path d="M70.3117 41.7706H78.026" stroke="#231F20" stroke-width="0.3"/>
    <path d="M38.8117 70.2783L45.2402 73.7793" stroke="#231F20" stroke-width="0.3"/>
    <path d="M31.7402 80.7812H39.4545" stroke="#231F20" stroke-width="0.3"/>
    <path d="M40.0973 95.7854L47.1687 92.2844" stroke="#231F20" stroke-width="0.3"/>
    <path d="M122.383 66.7774L128.503 63.6565" stroke="#231F20" stroke-width="0.3"/>
    <path d="M123.231 51.7133L129.377 55.3543" stroke="#231F20" stroke-width="0.3"/>
    <path d="M141.592 43.7311L141.026 49.7727" stroke="#231F20" stroke-width="0.3"/>
    <path d="M117.446 131.915L125.289 132.175" stroke="#231F20" stroke-width="0.3"/>
    <path d="M120.017 120.232L126.163 123.873" stroke="#231F20" stroke-width="0.3"/>
    <path d="M138.377 112.25L141.257 118.371" stroke="#231F20" stroke-width="0.3"/>
    <path d="M124.955 87.7832L118.526 91.2842" stroke="#231F20" stroke-width="0.3"/>
    <path d="M124.312 102.787L115.955 100.787" stroke="#231F20" stroke-width="0.3"/>
    <path d="M147.454 133.796L140.383 130.295" stroke="#231F20" stroke-width="0.3"/>
    <path d="M166.74 82.7818L159.669 79.2809" stroke="#231F20" stroke-width="0.3"/>
    <path d="M160.955 104.788L155.812 107.789" stroke="#231F20" stroke-width="0.3"/>
    <path d="M51.2316 59.8955L59.0745 60.1556" stroke="#231F20" stroke-width="0.3"/>
    <path d="M53.8029 48.2123L59.9487 51.8533" stroke="#231F20" stroke-width="0.3"/>
    <path d="M149.383 57.7749L156.377 58.8552" stroke="#231F20" stroke-width="0.3"/>
    <path d="M39.4545 112.29L40.7402 118.792" stroke="#231F20" stroke-width="0.3"/>
    <path d="M44.5972 108.289L53.5972 106.788" stroke="#231F20" stroke-width="0.3"/>
    <path d="M85.0973 26.2664L95.383 27.7668" stroke="#231F20" stroke-width="0.3"/>
    <path d="M86.9486 67.8177L88.2343 74.8197" stroke="#231F20" stroke-width="0.3"/>
    <path d="M166.74 46.7719L160.312 44.2712" stroke="#231F20" stroke-width="0.3"/>
    <path d="M26.5973 27.7667L34.9545 33.2682" stroke="#231F20" stroke-width="0.3"/>
    <path d="M13.0973 59.7755L6.66872 63.2765" stroke="#231F20" stroke-width="0.3"/>
    <path d="M41.3831 48.7725L36.2403 51.7733" stroke="#231F20" stroke-width="0.3"/>
    <path d="M107.057 10.382L111.814 5.02051" stroke="#231F20" stroke-width="0.3"/>
    <path d="M166.843 70.8986L171.6 65.5371" stroke="#231F20" stroke-width="0.3"/>
    <path d="M87.7716 53.3937L89.5973 47.7722" stroke="#231F20" stroke-width="0.3"/>
    <path d="M53.0573 118.412L54.883 112.79" stroke="#231F20" stroke-width="0.3"/>
    <path d="M82.5258 86.2827L77.383 89.2835" stroke="#231F20" stroke-width="0.3"/>
    <path d="M7.95468 48.7725H0.240391" stroke="#231F20" stroke-width="0.3"/>
    <path d="M5.38325 80.2811L0.240391 83.2819" stroke="#231F20" stroke-width="0.3"/>
    <path d="M175.637 2.45981L178.492 -3.46179" stroke="#231F20" stroke-width="0.3"/>
    <path d="M163.192 2.7199L161.597 -3.8219" stroke="#231F20" stroke-width="0.3"/>
    <path d="M124.08 4.44036L124.363 -1.56128" stroke="#231F20" stroke-width="0.3"/>
    <path d="M83.7089 1.23943L80.0575 -2.86169" stroke="#231F20" stroke-width="0.3"/>
    <path d="M41.8717 1.51957L45.2916 -2.40149" stroke="#231F20" stroke-width="0.3"/>
    <path d="M13.4316 4.18032L9.16299 -0.460938" stroke="#231F20" stroke-width="0.3"/>
    <path d="M14.3831 104.788L4.74028 103.287" stroke="#231F20" stroke-width="0.3"/>
    <path d="M176.666 115.471L171.806 109.829" stroke="#231F20" stroke-width="0.3"/>
    <path d="M62.52 72.8191L64.2686 67.2375" stroke="#231F20" stroke-width="0.3"/>
    <path d="M115.955 74.7797L110.812 77.7805" stroke="#231F20" stroke-width="0.3"/>
    <path d="M143.52 4.80047L148.663 -1.20117" stroke="#231F20" stroke-width="0.3"/>
    <path d="M143.52 148.84L148.663 142.838" stroke="#231F20" stroke-width="0.3"/>
    <path d="M4.09746 14.7632L-4.25969 16.2636" stroke="#231F20" stroke-width="0.3"/>
    <path d="M0.883131 38.2697L-5.54544 41.7706" stroke="#231F20" stroke-width="0.3"/>
    <path d="M7.95468 48.7725H0.240391" stroke="#231F20" stroke-width="0.3"/>
    <path d="M5.38325 80.2811L0.240391 83.2819" stroke="#231F20" stroke-width="0.3"/>
    <path d="M4.09749 126.294L-6.83109 124.793" stroke="#231F20" stroke-width="0.3"/>
    <path d="M175.637 2.45981L178.492 -3.46179" stroke="#231F20" stroke-width="0.3"/>
    <path d="M163.192 2.7199L161.598 -3.8219" stroke="#231F20" stroke-width="0.3"/>
    <path d="M124.08 4.44036L124.363 -1.56128" stroke="#231F20" stroke-width="0.3"/>
    <path d="M83.7091 1.23943L80.0577 -2.86169" stroke="#231F20" stroke-width="0.3"/>
    <path d="M41.8718 1.51957L45.2918 -2.40149" stroke="#231F20" stroke-width="0.3"/>
    <path d="M13.4318 4.18032L9.16318 -0.460938" stroke="#231F20" stroke-width="0.3"/>
    <path d="M143.52 4.80047L148.663 -1.20117" stroke="#231F20" stroke-width="0.3"/>
  </g>
</svg>