<svg xmlns="http://www.w3.org/2000/svg" width="75" height="75" viewBox="0 0 75 75" fill="none">
  <g clip-path="url(#clip0_343_59)">
    <g filter="url(#filter0_d_343_59)">
      <path d="M53.9063 48.0823C53.9063 37.2654 45.0469 36.0328 37.9287 35.044C30.1709 33.9637 25.7813 33.0284 25.7813 26.3487C25.7813 20.7401 31.6573 18.75 36.6886 18.75C39.1963 18.6689 41.6874 19.185 43.9564 20.2559C46.2254 21.3268 48.2074 22.9217 49.7389 24.9091L53.3862 21.9659C51.7461 19.857 49.7053 18.093 47.3812 16.7754C45.0572 15.4578 42.4956 14.6124 39.8438 14.288V7.03125H35.1563V14.1141C26.6831 14.6278 21.0938 19.4109 21.0938 26.3484C21.0938 37.4344 30.0703 38.6829 37.2832 39.6844C44.9063 40.7456 49.2188 41.6588 49.2188 48.0823C49.2188 55.1892 41.8767 56.25 37.5 56.25C29.4624 56.25 26.0667 53.9909 22.9174 50.0909L19.2701 53.0341C21.1282 55.4826 23.5314 57.4642 26.289 58.8218C29.0466 60.1794 32.0827 60.8755 35.1563 60.855V67.9688H39.8438V60.8323C48.5756 60.1193 53.9063 55.3779 53.9063 48.0823Z" fill="#3E20E4"/>
      <path d="M53.9063 48.0823C53.9063 37.2654 45.0469 36.0328 37.9287 35.044C30.1709 33.9637 25.7813 33.0284 25.7813 26.3487C25.7813 20.7401 31.6573 18.75 36.6886 18.75C39.1963 18.6689 41.6874 19.185 43.9564 20.2559C46.2254 21.3268 48.2074 22.9217 49.7389 24.9091L53.3862 21.9659C51.7461 19.857 49.7053 18.093 47.3812 16.7754C45.0572 15.4578 42.4956 14.6124 39.8438 14.288V7.03125H35.1563V14.1141C26.6831 14.6278 21.0938 19.4109 21.0938 26.3484C21.0938 37.4344 30.0703 38.6829 37.2832 39.6844C44.9063 40.7456 49.2188 41.6588 49.2188 48.0823C49.2188 55.1892 41.8767 56.25 37.5 56.25C29.4624 56.25 26.0667 53.9909 22.9174 50.0909L19.2701 53.0341C21.1282 55.4826 23.5314 57.4642 26.289 58.8218C29.0466 60.1794 32.0827 60.8755 35.1563 60.855V67.9688H39.8438V60.8323C48.5756 60.1193 53.9063 55.3779 53.9063 48.0823Z" fill="url(#paint0_linear_343_59)"/>
    </g>
  </g>
  <defs>
    <filter id="filter0_d_343_59" x="15.2701" y="7.03125" width="42.6362" height="68.9375" filterUnits="userSpaceOnUse" color-interpolation-filters="sRGB">
      <feFlood flood-opacity="0" result="BackgroundImageFix"/>
      <feColorMatrix in="SourceAlpha" type="matrix" values="0 0 0 0 0 0 0 0 0 0 0 0 0 0 0 0 0 0 127 0" result="hardAlpha"/>
      <feOffset dy="4"/>
      <feGaussianBlur stdDeviation="2"/>
      <feComposite in2="hardAlpha" operator="out"/>
      <feColorMatrix type="matrix" values="0 0 0 0 0 0 0 0 0 0 0 0 0 0 0 0 0 0 0.25 0"/>
      <feBlend mode="normal" in2="BackgroundImageFix" result="effect1_dropShadow_343_59"/>
      <feBlend mode="normal" in="SourceGraphic" in2="effect1_dropShadow_343_59" result="shape"/>
    </filter>
    <linearGradient id="paint0_linear_343_59" x1="19.2701" y1="39.3281" x2="53.4954" y2="39.2336" gradientUnits="userSpaceOnUse">
      <stop stop-color="#605DFF"/>
      <stop offset="1" stop-color="#A168FF"/>
    </linearGradient>
    <clipPath id="clip0_343_59">
      <rect width="75" height="75" fill="white"/>
    </clipPath>
  </defs>
</svg>