<svg xmlns="http://www.w3.org/2000/svg" width="35" height="34" viewBox="0 0 35 34" fill="none">
  <path d="M13.165 26.498C14.9597 26.5093 16.7388 26.1642 18.3991 25.4826C20.0594 24.801 21.5678 23.7965 22.8369 22.5274C24.1059 21.2583 25.1104 19.7499 25.792 18.0896C26.4736 16.4293 26.8188 14.6503 26.8075 12.8555C26.8075 12.643 26.8075 12.4412 26.8075 12.2287C27.7378 11.5471 28.5431 10.7095 29.1875 9.75304C28.3115 10.1362 27.3846 10.3903 26.4356 10.5074C27.4417 9.90793 28.1966 8.96431 28.5606 7.85117C27.623 8.4137 26.5948 8.80915 25.5219 9.01992C24.7993 8.24999 23.8431 7.73966 22.8013 7.56789C21.7595 7.39612 20.6901 7.57247 19.7586 8.06967C18.8271 8.56688 18.0854 9.35721 17.6483 10.3184C17.2112 11.2795 17.1031 12.358 17.3406 13.3868C15.4345 13.2932 13.5695 12.7993 11.867 11.937C10.1645 11.0748 8.6627 9.86363 7.45938 8.38242C6.85261 9.43554 6.66869 10.6799 6.94487 11.8635C7.22105 13.0471 7.93668 14.0816 8.94687 14.7574C8.20165 14.7287 7.47367 14.5248 6.82187 14.1624V14.2155C6.81525 15.3161 7.18602 16.3857 7.87237 17.2461C8.55873 18.1064 9.51921 18.7056 10.5938 18.9437C9.90062 19.1301 9.17456 19.1591 8.46875 19.0287C8.77983 19.9673 9.37366 20.7866 10.1688 21.3744C10.9639 21.9622 11.9214 22.2897 12.91 22.3118C11.2198 23.6723 9.1191 24.4213 6.94938 24.4368C6.56895 24.4258 6.18942 24.3939 5.8125 24.3412C8.00864 25.7404 10.561 26.4781 13.165 26.4662" fill="black"/>
</svg>