<svg xmlns="http://www.w3.org/2000/svg" width="35" height="34" viewBox="0 0 35 34" fill="none">
<path fill-rule="evenodd" clip-rule="evenodd" d="M22.6521 6.62074C21.3077 6.55932 20.9044 6.54636 17.5 6.54636V6.54625C14.0956 6.54625 13.6923 6.55932 12.3479 6.62063C11.5394 6.63025 10.7386 6.77876 9.98037 7.05965C9.43051 7.27183 8.93116 7.59675 8.51442 8.01351C8.09768 8.43026 7.77278 8.92964 7.56063 9.4795C7.27973 10.2377 7.13123 11.0386 7.12161 11.8471C7.06019 13.1914 7.04723 13.5948 7.04723 16.9991C7.04723 20.4035 7.0603 20.8068 7.12161 22.1512C7.13123 22.9597 7.27973 23.7606 7.56063 24.5188C7.7728 25.0686 8.0977 25.568 8.51444 25.9847C8.93118 26.4014 9.43052 26.7263 9.98037 26.9385C10.7386 27.2194 11.5394 27.3679 12.3479 27.3775C13.6922 27.4389 14.0953 27.4519 17.5 27.4519C20.9047 27.4519 21.3078 27.4388 22.6521 27.3775C23.4606 27.3679 24.2614 27.2194 25.0196 26.9385C25.5695 26.7263 26.0688 26.4014 26.4856 25.9847C26.9023 25.568 27.2272 25.0686 27.4394 24.5188C27.7203 23.7606 27.8688 22.9597 27.8784 22.1512C27.9398 20.8068 27.9528 20.4035 27.9528 16.9991C27.9528 13.5948 27.9397 13.1914 27.8784 11.8471C27.8688 11.0386 27.7203 10.2377 27.4394 9.4795C27.2272 8.92965 26.9023 8.43031 26.4856 8.01357C26.0688 7.59683 25.5695 7.27193 25.0196 7.05976C24.2614 6.77886 23.4606 6.63036 22.6521 6.62074ZM12.2432 4.32574C13.6031 4.26369 14.0373 4.24902 17.5 4.24902C20.9627 4.24902 21.3969 4.26369 22.7563 4.32627C23.814 4.34745 24.8605 4.54785 25.8512 4.91893C26.6983 5.24645 27.4676 5.74733 28.1098 6.38945C28.752 7.03157 29.253 7.80078 29.5806 8.64777C29.9517 9.63834 30.1521 10.6846 30.1733 11.7422C30.2353 13.1021 30.25 13.5363 30.25 16.999C30.25 20.4617 30.2353 20.896 30.1738 22.2553C30.1526 23.3131 29.9522 24.3595 29.5812 25.3503C29.2536 26.1974 28.7526 26.9667 28.1104 27.6089C27.4682 28.2511 26.6989 28.7521 25.8518 29.0796C24.861 29.4507 23.8146 29.6511 22.7568 29.6723C21.3969 29.7344 20.9627 29.749 17.5 29.749C14.0373 29.749 13.6031 29.7344 12.2437 29.6728C11.186 29.6517 10.1395 29.4513 9.14875 29.0802C8.30165 28.7526 7.53234 28.2516 6.89013 27.6094C6.24791 26.9672 5.74696 26.1979 5.41938 25.3508C5.04829 24.3601 4.8479 23.3136 4.82671 22.2558C4.76466 20.896 4.75 20.4617 4.75 16.999C4.75 13.5363 4.76466 13.1021 4.82671 11.7427C4.84788 10.685 5.04828 9.6385 5.41938 8.64777C5.74696 7.80068 6.24791 7.03137 6.89013 6.38915C7.53234 5.74694 8.30165 5.24598 9.14875 4.9184C10.1393 4.54736 11.1856 4.34697 12.2432 4.32574ZM24.3059 11.723C25.1509 11.723 25.8359 11.038 25.8359 10.193C25.8359 9.34797 25.1509 8.66296 24.3059 8.66296C23.4609 8.66296 22.7759 9.34797 22.7759 10.193C22.7759 11.038 23.4609 11.723 24.3059 11.723ZM17.5 10.4518C16.205 10.4518 14.9392 10.8358 13.8625 11.5552C12.7858 12.2746 11.9466 13.2972 11.451 14.4936C10.9555 15.6899 10.8258 17.0064 11.0784 18.2764C11.3311 19.5465 11.9546 20.7131 12.8703 21.6288C13.786 22.5445 14.9526 23.168 16.2226 23.4207C17.4927 23.6733 18.8092 23.5436 20.0055 23.0481C21.2019 22.5525 22.2245 21.7133 22.9439 20.6366C23.6633 19.5599 24.0473 18.2941 24.0473 16.9991C24.0473 15.2627 23.3575 13.5973 22.1296 12.3695C20.9018 11.1416 19.2364 10.4518 17.5 10.4518ZM17.5 21.2491C16.6594 21.2491 15.8377 20.9999 15.1388 20.5329C14.4399 20.0659 13.8952 19.4021 13.5735 18.6255C13.2518 17.8489 13.1676 16.9944 13.3316 16.17C13.4956 15.3456 13.9004 14.5883 14.4948 13.9939C15.0891 13.3995 15.8464 12.9948 16.6708 12.8308C17.4953 12.6668 18.3498 12.751 19.1264 13.0726C19.903 13.3943 20.5667 13.939 21.0337 14.6379C21.5007 15.3369 21.75 16.1585 21.75 16.9991C21.75 18.1263 21.3022 19.2073 20.5052 20.0043C19.7081 20.8014 18.6271 21.2491 17.5 21.2491Z" fill="black"/>
</svg>