<svg xmlns="http://www.w3.org/2000/svg" width="35" height="34" viewBox="0 0 35 34" fill="none">
<path d="M28.8369 4.24902H6.16312C5.7892 4.2518 5.43138 4.40158 5.16697 4.66599C4.90256 4.9304 4.75278 5.28822 4.75 5.66215V28.3359C4.75278 28.7098 4.90256 29.0676 5.16697 29.3321C5.43138 29.5965 5.7892 29.7462 6.16312 29.749H18.3713V19.889H15.0562V16.0321H18.3713V13.1953C18.3713 9.90152 20.3794 8.1059 23.3331 8.1059C24.3212 8.1059 25.3094 8.1059 26.2975 8.25465V11.6865H24.2681C22.6638 11.6865 22.3556 12.4515 22.3556 13.5671V16.0215H26.1806L25.6813 19.8784H22.3556V29.749H28.8369C29.2108 29.7462 29.5686 29.5965 29.833 29.3321C30.0974 29.0676 30.2472 28.7098 30.25 28.3359V5.66215C30.2472 5.28822 30.0974 4.9304 29.833 4.66599C29.5686 4.40158 29.2108 4.2518 28.8369 4.24902Z" fill="black"/>
</svg>