<svg width="75" height="76" viewBox="0 0 75 76" fill="none" xmlns="http://www.w3.org/2000/svg">
<g id="location--filled" clip-path="url(#clip0_331_916)">
<g id="Vector" filter="url(#filter0_d_331_916)">
<path d="M37.5 5.1875C30.6649 5.19581 24.1122 7.91471 19.2791 12.7478C14.446 17.581 11.7271 24.1337 11.7187 30.9688C11.7107 36.5545 13.5355 41.9887 16.9132 46.4375C16.9132 46.4375 17.6163 47.3621 17.7293 47.4962L37.5 70.8125L57.2789 47.4861C57.383 47.3612 58.0868 46.4366 58.0868 46.4366L58.0903 46.4309C61.466 41.9838 63.2896 36.552 63.2812 30.9688C63.2729 24.1337 60.554 17.581 55.7209 12.7478C50.8878 7.91471 44.3351 5.19581 37.5 5.1875ZM37.5 40.3438C35.6458 40.3438 33.8332 39.7939 32.2915 38.7638C30.7498 37.7336 29.5482 36.2695 28.8386 34.5564C28.1291 32.8434 27.9434 30.9584 28.3051 29.1398C28.6669 27.3212 29.5598 25.6507 30.8709 24.3396C32.182 23.0285 33.8525 22.1356 35.671 21.7739C37.4896 21.4122 39.3746 21.5978 41.0877 22.3074C42.8007 23.017 44.2649 24.2186 45.295 25.7603C46.3252 27.302 46.875 29.1145 46.875 30.9688C46.8722 33.4543 45.8836 35.8372 44.126 37.5948C42.3685 39.3523 39.9855 40.341 37.5 40.3438Z" fill="#3E20E4"/>
<path d="M37.5 5.1875C30.6649 5.19581 24.1122 7.91471 19.2791 12.7478C14.446 17.581 11.7271 24.1337 11.7187 30.9688C11.7107 36.5545 13.5355 41.9887 16.9132 46.4375C16.9132 46.4375 17.6163 47.3621 17.7293 47.4962L37.5 70.8125L57.2789 47.4861C57.383 47.3612 58.0868 46.4366 58.0868 46.4366L58.0903 46.4309C61.466 41.9838 63.2896 36.552 63.2812 30.9688C63.2729 24.1337 60.554 17.581 55.7209 12.7478C50.8878 7.91471 44.3351 5.19581 37.5 5.1875ZM37.5 40.3438C35.6458 40.3438 33.8332 39.7939 32.2915 38.7638C30.7498 37.7336 29.5482 36.2695 28.8386 34.5564C28.1291 32.8434 27.9434 30.9584 28.3051 29.1398C28.6669 27.3212 29.5598 25.6507 30.8709 24.3396C32.182 23.0285 33.8525 22.1356 35.671 21.7739C37.4896 21.4122 39.3746 21.5978 41.0877 22.3074C42.8007 23.017 44.2649 24.2186 45.295 25.7603C46.3252 27.302 46.875 29.1145 46.875 30.9688C46.8722 33.4543 45.8836 35.8372 44.126 37.5948C42.3685 39.3523 39.9855 40.341 37.5 40.3438Z" fill="url(#paint0_linear_331_916)"/>
</g>
</g>
<defs>
<filter id="filter0_d_331_916" x="7.71872" y="5.1875" width="59.5626" height="73.625" filterUnits="userSpaceOnUse" color-interpolation-filters="sRGB">
<feFlood flood-opacity="0" result="BackgroundImageFix"/>
<feColorMatrix in="SourceAlpha" type="matrix" values="0 0 0 0 0 0 0 0 0 0 0 0 0 0 0 0 0 0 127 0" result="hardAlpha"/>
<feOffset dy="4"/>
<feGaussianBlur stdDeviation="2"/>
<feComposite in2="hardAlpha" operator="out"/>
<feColorMatrix type="matrix" values="0 0 0 0 0 0 0 0 0 0 0 0 0 0 0 0 0 0 0.25 0"/>
<feBlend mode="normal" in2="BackgroundImageFix" result="effect1_dropShadow_331_916"/>
<feBlend mode="normal" in="SourceGraphic" in2="effect1_dropShadow_331_916" result="shape"/>
</filter>
<linearGradient id="paint0_linear_331_916" x1="11.7187" y1="39.9688" x2="62.6693" y2="39.7743" gradientUnits="userSpaceOnUse">
<stop stop-color="#605DFF"/>
<stop offset="1" stop-color="#A168FF"/>
</linearGradient>
<clipPath id="clip0_331_916">
<rect width="75" height="75" fill="white" transform="translate(0 0.5)"/>
</clipPath>
</defs>
</svg>
