<svg xmlns="http://www.w3.org/2000/svg" width="75" height="76" viewBox="0 0 75 76" fill="none">
  <path fill-rule="evenodd" clip-rule="evenodd" d="M56.6454 8.58594L59.6271 19.25H65.625V23.9375H60.9375V40.3438C60.936 41.5865 60.4416 42.7779 59.5629 43.6566C58.6841 44.5353 57.4927 45.0297 56.25 45.0312V52.0625H51.5625V45.0312H23.4375V52.0625H18.75V45.0312C17.5073 45.0297 16.3159 44.5353 15.4372 43.6566C14.5584 42.7779 14.0641 41.5865 14.0625 40.3438V23.9375H9.375V19.25H15.3082L18.3546 8.58758C18.6374 7.6098 19.2295 6.75 20.0421 6.13702C20.8547 5.52404 21.844 5.19089 22.8619 5.1875H52.1381C53.1558 5.19083 54.1449 5.52375 54.9575 6.13641C55.77 6.74907 56.3622 7.60848 56.6454 8.58594ZM52.1386 9.875H22.8619L19.5134 21.5938H55.4866L52.1386 9.875ZM51.5625 30.9688H56.25V26.2812H18.75V30.9688H23.4375V35.6562H18.75V40.3438H56.25V35.6562H51.5625V30.9688ZM30.4688 30.9688H44.5312V35.6562H30.4688V30.9688ZM9.375 38H4.6875V70.8125H9.375V38ZM65.625 38H70.3125V70.8125H65.625V38ZM39.8438 49.7188H35.1562V56.75H39.8438V49.7188ZM35.1562 61.4375H39.8438V70.8125H35.1562V61.4375Z" fill="#3E20E4"/>
  <path fill-rule="evenodd" clip-rule="evenodd" d="M56.6454 8.58594L59.6271 19.25H65.625V23.9375H60.9375V40.3438C60.936 41.5865 60.4416 42.7779 59.5629 43.6566C58.6841 44.5353 57.4927 45.0297 56.25 45.0312V52.0625H51.5625V45.0312H23.4375V52.0625H18.75V45.0312C17.5073 45.0297 16.3159 44.5353 15.4372 43.6566C14.5584 42.7779 14.0641 41.5865 14.0625 40.3438V23.9375H9.375V19.25H15.3082L18.3546 8.58758C18.6374 7.6098 19.2295 6.75 20.0421 6.13702C20.8547 5.52404 21.844 5.19089 22.8619 5.1875H52.1381C53.1558 5.19083 54.1449 5.52375 54.9575 6.13641C55.77 6.74907 56.3622 7.60848 56.6454 8.58594ZM52.1386 9.875H22.8619L19.5134 21.5938H55.4866L52.1386 9.875ZM51.5625 30.9688H56.25V26.2812H18.75V30.9688H23.4375V35.6562H18.75V40.3438H56.25V35.6562H51.5625V30.9688ZM30.4688 30.9688H44.5312V35.6562H30.4688V30.9688ZM9.375 38H4.6875V70.8125H9.375V38ZM65.625 38H70.3125V70.8125H65.625V38ZM39.8438 49.7188H35.1562V56.75H39.8438V49.7188ZM35.1562 61.4375H39.8438V70.8125H35.1562V61.4375Z" fill="url(#paint0_linear_331_115)"/>
  <defs>
    <linearGradient id="paint0_linear_331_115" x1="4.6875" y1="39.9688" x2="69.533" y2="39.6537" gradientUnits="userSpaceOnUse">
      <stop stop-color="#605DFF"/>
      <stop offset="1" stop-color="#A168FF"/>
    </linearGradient>
  </defs>
</svg>