<svg xmlns="http://www.w3.org/2000/svg" width="75" height="76" viewBox="0 0 75 76" fill="none">
  <g clip-path="url(#clip0_331_490)">
    <g filter="url(#filter0_d_331_490)">
      <path fill-rule="evenodd" clip-rule="evenodd" d="M46.875 42.6875V47.375H37.5V68.4688H11.7188C7.84148 68.4688 4.6875 65.3148 4.6875 61.4375V14.5625C4.6875 10.6852 7.84148 7.53125 11.7188 7.53125H58.5938C62.471 7.53125 65.625 10.6852 65.625 14.5625V30.9688H60.9375V26.2812H37.5V42.6875H46.875ZM9.375 42.6875H32.8125V26.2812H9.375V42.6875ZM58.5938 12.2188H11.7188C10.4262 12.2188 9.375 13.2692 9.375 14.5625V21.5938H60.9375V14.5625C60.9375 13.2692 59.8863 12.2188 58.5938 12.2188ZM11.7188 63.7812H32.8125V47.375H9.375V61.4375C9.375 62.7308 10.4262 63.7812 11.7188 63.7812ZM67.2823 41.0303L74.3135 48.0616C75.229 48.9773 75.2287 50.4604 74.3133 51.3759L52.5335 73.1564H42.1875V62.8108L63.968 41.0303C64.8825 40.1149 66.368 40.1149 67.2823 41.0303ZM50.5915 68.4686L56.9367 62.1241L62.3107 56.7499L58.5938 53.0329L53.2195 58.4072L46.875 64.7517V68.4686H50.5915ZM61.908 49.7189L65.625 53.4358L69.3415 49.7189L65.625 46.0019L61.908 49.7189Z" fill="#3E20E4"/>
      <path fill-rule="evenodd" clip-rule="evenodd" d="M46.875 42.6875V47.375H37.5V68.4688H11.7188C7.84148 68.4688 4.6875 65.3148 4.6875 61.4375V14.5625C4.6875 10.6852 7.84148 7.53125 11.7188 7.53125H58.5938C62.471 7.53125 65.625 10.6852 65.625 14.5625V30.9688H60.9375V26.2812H37.5V42.6875H46.875ZM9.375 42.6875H32.8125V26.2812H9.375V42.6875ZM58.5938 12.2188H11.7188C10.4262 12.2188 9.375 13.2692 9.375 14.5625V21.5938H60.9375V14.5625C60.9375 13.2692 59.8863 12.2188 58.5938 12.2188ZM11.7188 63.7812H32.8125V47.375H9.375V61.4375C9.375 62.7308 10.4262 63.7812 11.7188 63.7812ZM67.2823 41.0303L74.3135 48.0616C75.229 48.9773 75.2287 50.4604 74.3133 51.3759L52.5335 73.1564H42.1875V62.8108L63.968 41.0303C64.8825 40.1149 66.368 40.1149 67.2823 41.0303ZM50.5915 68.4686L56.9367 62.1241L62.3107 56.7499L58.5938 53.0329L53.2195 58.4072L46.875 64.7517V68.4686H50.5915ZM61.908 49.7189L65.625 53.4358L69.3415 49.7189L65.625 46.0019L61.908 49.7189Z" fill="url(#paint0_linear_331_490)"/>
    </g>
  </g>
  <defs>
    <filter id="filter0_d_331_490" x="0.6875" y="7.53125" width="78.3125" height="73.6251" filterUnits="userSpaceOnUse" color-interpolation-filters="sRGB">
      <feFlood flood-opacity="0" result="BackgroundImageFix"/>
      <feColorMatrix in="SourceAlpha" type="matrix" values="0 0 0 0 0 0 0 0 0 0 0 0 0 0 0 0 0 0 127 0" result="hardAlpha"/>
      <feOffset dy="4"/>
      <feGaussianBlur stdDeviation="2"/>
      <feComposite in2="hardAlpha" operator="out"/>
      <feColorMatrix type="matrix" values="0 0 0 0 0 0 0 0 0 0 0 0 0 0 0 0 0 0 0.25 0"/>
      <feBlend mode="normal" in2="BackgroundImageFix" result="effect1_dropShadow_331_490"/>
      <feBlend mode="normal" in="SourceGraphic" in2="effect1_dropShadow_331_490" result="shape"/>
    </filter>
    <linearGradient id="paint0_linear_331_490" x1="4.6875" y1="42.3126" x2="74.1646" y2="41.9509" gradientUnits="userSpaceOnUse">
      <stop stop-color="#605DFF"/>
      <stop offset="1" stop-color="#A168FF"/>
    </linearGradient>
    <clipPath id="clip0_331_490">
      <rect width="75" height="75" fill="white" transform="translate(0 0.5)"/>
    </clipPath>
  </defs>
</svg>