<svg xmlns="http://www.w3.org/2000/svg" width="22" height="24" viewBox="0 0 22 24" fill="none">
  <path d="M10.3048 11.4617L0.5896 22.0059C0.590512 22.0078 0.590512 22.0106 0.591424 22.0125C0.889807 23.1574 1.91179 24 3.12539 24C3.61083 24 4.06616 23.8656 4.45671 23.6305L4.48773 23.6118L15.4229 17.1593L10.3048 11.4617Z" fill="#EA4335"/>
  <path d="M20.1331 9.66619L20.124 9.65966L15.4028 6.86123L10.0839 11.7013L15.422 17.1582L20.1176 14.3878C20.9407 13.9324 21.5 13.045 21.5 12.0223C21.5 11.0052 20.9489 10.1225 20.1331 9.66619Z" fill="#FBBC04"/>
  <path d="M0.589423 1.99337C0.531024 2.21359 0.5 2.445 0.5 2.68388V21.3164C0.5 21.5553 0.531024 21.7867 0.590336 22.006L10.6386 11.7314L0.589423 1.99337Z" fill="#4285F4"/>
  <path d="M10.3766 11.9999L15.4044 6.85932L4.48192 0.383476C4.08499 0.139932 3.62145 -3.52859e-05 3.12597 -3.52859e-05C1.91237 -3.52859e-05 0.888558 0.844438 0.590176 1.99031C0.590176 1.99124 0.589264 1.99217 0.589264 1.99311L10.3766 11.9999Z" fill="#34A853"/>
</svg>