<svg width="254" height="125" viewBox="0 0 254 125" fill="none" xmlns="http://www.w3.org/2000/svg">
<g id="Logo" clip-path="url(#clip0_128_21)">
<g id="Group">
<path id="Vector" d="M12.9511 1.10455V53.7078H2.12543V1.10455H12.9511ZM21.7777 53.7078L5.04507 25.6786C7.49992 27.9849 10.045 29.1337 12.6804 29.1337C15.3157 29.1337 17.5179 28.2456 19.2823 26.4651C21.0467 24.689 21.9312 22.5947 21.9312 20.1912C21.9312 18.5874 21.5205 17.0985 20.7038 15.72C19.887 14.3415 18.7859 13.2546 17.4005 12.4505C16.0197 11.6508 14.508 11.2488 12.8744 11.2488H7.49992V1.10455H12.8744C16.3536 1.10455 19.5891 1.95727 22.581 3.65828C25.5773 5.36371 27.9419 7.67885 29.6793 10.6081C31.4166 13.5374 32.2876 16.7318 32.2876 20.1912C32.2876 23.6507 31.4798 26.5667 29.8688 29.3988C28.2578 32.2308 26.0692 34.4974 23.3075 36.1984L33.7451 53.7078H21.7732H21.7777Z" stroke="#F4690B" stroke-width="2" stroke-miterlimit="10"/>
<path id="Vector_2" d="M45.2613 31.4665H55.0852C56.5698 31.4665 57.364 31.1528 57.4633 30.5254C57.5626 29.898 57.0121 29.2751 55.8117 28.6477C54.6068 28.0203 53.059 27.7066 51.1683 27.7066C49.7333 27.7066 48.393 28.0689 47.1385 28.7979C45.884 29.5225 44.9003 30.5122 44.1828 31.7669C43.4653 33.0217 43.1088 34.3737 43.1088 35.8273C43.1088 37.2809 43.4653 38.6196 44.1828 39.8478C44.9003 41.0761 45.8705 42.0658 47.0979 42.8169C48.3253 43.568 49.6565 43.9435 51.087 43.9435C52.2648 43.8949 53.3659 43.6696 54.3857 43.2675C55.4101 42.8655 56.3036 42.2911 57.0707 41.54L64.7466 49.0554C63.0048 50.7608 60.9335 52.0863 58.5283 53.0406C56.1231 53.9905 53.6412 54.4677 51.0825 54.4677C47.6529 54.4677 44.4941 53.6282 41.6061 51.9493C38.7135 50.2704 36.4347 48.0039 34.774 45.1497C33.1089 42.2955 32.2786 39.1895 32.2786 35.8317C32.2786 32.4738 33.1224 29.359 34.8101 26.4739C36.4978 23.5932 38.7902 21.3134 41.6783 19.6345C44.5663 17.9556 47.7252 17.1161 51.1547 17.1161C57.4498 17.1161 62.1023 19.1971 65.1257 23.3547C68.1446 27.5122 68.7177 31.6741 66.8495 35.8317C64.9813 39.9892 61.0553 42.0702 55.0671 42.0702H45.2432V31.4753L45.2613 31.4665Z" stroke="#F4690B" stroke-width="2" stroke-miterlimit="10"/>
<path id="Vector_3" d="M89.5523 53.7077V31.4621C89.5523 30.711 89.3627 30.0217 88.9792 29.3943C88.5956 28.767 88.0857 28.2677 87.4449 27.8921C86.8041 27.5166 86.1001 27.331 85.333 27.331C84.5659 27.331 83.8619 27.521 83.2211 27.8921C82.5803 28.2677 82.0704 28.7714 81.6868 29.3943C81.3033 30.0217 81.1092 30.711 81.1092 31.4621V53.7077H70.288V31.4621C70.288 28.8067 70.9649 26.3502 72.3232 24.0969C73.6815 21.8436 75.5091 20.0498 77.8105 18.7244C80.1119 17.3989 82.6209 16.7318 85.333 16.7318C88.0451 16.7318 90.5495 17.3989 92.8555 18.7244C95.1569 20.0542 96.989 21.8436 98.3428 24.0969C99.6966 26.3502 100.378 28.8067 100.378 31.4621V53.7077H89.5568H89.5523Z" stroke="#F4690B" stroke-width="2" stroke-miterlimit="10"/>
<path id="Vector_4" d="M101.908 17.5624H120.635V28.1573H101.908V17.5624ZM116.569 8.61993V39.8832C116.569 40.7845 116.89 41.5489 117.53 42.1762C118.171 42.8036 118.952 43.1173 119.872 43.1173H120.639V53.7122H119.872C117.314 53.7122 114.963 53.0981 112.81 51.8698C110.662 50.6415 108.947 48.9759 107.666 46.8728C106.389 44.7697 105.748 42.4413 105.748 39.8832V8.61993H116.574H116.569Z" stroke="#F4690B" stroke-width="2" stroke-miterlimit="10"/>
</g>
<g id="Group_2">
<path id="Vector_5" d="M101.028 79.6117L92.8149 55.8638H103.866L107.323 68.036L110.775 55.8638H121.826L113.613 79.6117L123.744 108.467H112.693L107.318 91.2581L101.944 108.467H90.8925L101.023 79.6117H101.028Z" fill="#F4690B"/>
<path id="Vector_6" d="M125.743 125V72.3217H136.569V125H125.743ZM131.19 97.9473H136.411C137.841 97.9473 139.146 97.6115 140.323 96.9311C141.501 96.2551 142.449 95.3538 143.166 94.2271C143.884 93.1005 144.24 91.859 144.24 90.507C144.24 89.155 143.879 87.8296 143.166 86.6764C142.449 85.5233 141.501 84.6087 140.323 83.9327C139.146 83.2567 137.841 82.9165 136.411 82.9165H131.19V72.3217H136.411C139.786 72.3217 142.909 73.139 145.775 74.7649C148.64 76.3952 150.905 78.5955 152.566 81.379C154.227 84.158 155.062 87.2022 155.062 90.5114C155.062 93.8207 154.231 96.7853 152.566 99.5643C150.901 102.348 148.64 104.539 145.775 106.139C142.909 107.742 139.786 108.542 136.411 108.542H131.19V97.9473Z" fill="#F4690B"/>
<path id="Vector_7" d="M173.635 82.9209H172.868C171.69 82.9209 170.689 83.3362 169.872 84.1624C169.055 84.9886 168.644 85.9783 168.644 87.1315V108.471H157.823V87.1315C157.823 84.4275 158.487 81.9445 159.818 79.6912C161.149 77.4379 162.968 75.6441 165.269 74.3187C167.57 72.9932 170.106 72.326 172.868 72.326H173.635V82.9209Z" fill="#F4690B"/>
<path id="Vector_8" d="M186.758 86.2258H196.586C198.066 86.2258 198.861 85.9121 198.964 85.2847C199.068 84.6573 198.518 84.0343 197.313 83.407C196.108 82.7796 194.56 82.4659 192.669 82.4659C191.239 82.4659 189.894 82.8282 188.64 83.5572C187.385 84.2818 186.401 85.2714 185.684 86.5262C184.966 87.781 184.61 89.133 184.61 90.5865C184.61 92.0401 184.966 93.3789 185.684 94.6071C186.401 95.8354 187.372 96.8251 188.604 97.5762C189.831 98.3273 191.158 98.7028 192.593 98.7028C193.766 98.6542 194.867 98.4289 195.891 98.0268C196.916 97.6248 197.809 97.0504 198.576 96.2993L206.252 103.815C204.515 105.52 202.439 106.846 200.034 107.8C197.629 108.754 195.147 109.227 192.593 109.227C189.163 109.227 186.004 108.388 183.112 106.709C180.219 105.03 177.94 102.763 176.28 99.909C174.615 97.0548 173.784 93.9488 173.784 90.591C173.784 87.2331 174.628 84.1183 176.316 81.2332C178.004 78.3525 180.296 76.0727 183.184 74.3938C186.072 72.7149 189.231 71.8754 192.66 71.8754C198.955 71.8754 203.612 73.9564 206.631 78.1139C209.65 82.2715 210.223 86.4334 208.355 90.591C206.487 94.7485 202.561 96.8295 196.577 96.8295H186.749V86.2346L186.758 86.2258Z" fill="#F4690B"/>
<path id="Vector_9" d="M219.073 98.1726L220.99 99.4495C221.248 99.5997 221.5 99.6748 221.758 99.6748C222.064 99.6748 222.322 99.5599 222.525 99.339C222.728 99.1137 222.845 98.8619 222.868 98.5879C222.89 98.314 222.804 98.0975 222.597 97.9473L216.613 94.2669C213.337 92.0136 211.559 89.08 211.279 85.4747C210.995 81.8694 212.087 78.6751 214.542 75.896C216.997 73.117 220.246 71.7252 224.289 71.7252C225.774 71.7252 227.218 71.9505 228.626 72.4012C230.034 72.8519 231.451 73.5279 232.886 74.4292L227.511 82.5454C226.848 82.1434 226.27 81.8429 225.783 81.6441C225.295 81.4453 224.799 81.3437 224.289 81.3437C223.314 81.3437 222.525 81.6309 221.911 82.2096C221.297 82.784 221.004 83.4777 221.026 84.2774C221.049 85.0771 221.424 85.753 222.141 86.3053L228.206 90.0608C230.918 91.9164 232.389 94.3951 232.619 97.5011C232.849 100.607 231.929 103.351 229.858 105.728C227.786 108.109 225.083 109.298 221.758 109.298C219.506 109.298 217.407 108.67 215.467 107.42L213.549 106.143L219.073 98.177V98.1726Z" fill="#F4690B"/>
<path id="Vector_10" d="M240.182 98.1726L242.1 99.4495C242.358 99.5997 242.61 99.6748 242.867 99.6748C243.174 99.6748 243.432 99.5599 243.635 99.339C243.838 99.1137 243.955 98.8619 243.978 98.5879C244 98.314 243.914 98.0975 243.711 97.9473L237.723 94.2669C234.447 92.0136 232.669 89.08 232.389 85.4747C232.105 81.8694 233.197 78.6751 235.652 75.896C238.107 73.117 241.356 71.7252 245.399 71.7252C246.884 71.7252 248.328 71.9505 249.736 72.4012C251.144 72.8519 252.565 73.5279 253.995 74.4292L248.621 82.5454C247.958 82.1434 247.38 81.8429 246.897 81.6441C246.41 81.4453 245.913 81.3437 245.399 81.3437C244.429 81.3437 243.635 81.6309 243.021 82.2096C242.407 82.784 242.114 83.4777 242.141 84.2774C242.163 85.0771 242.538 85.753 243.256 86.3053L249.32 90.0608C252.028 91.9164 253.504 94.3951 253.734 97.5011C253.964 100.607 253.043 103.351 250.972 105.728C248.901 108.109 246.202 109.298 242.872 109.298C240.62 109.298 238.526 108.67 236.581 107.42L234.664 106.143L240.191 98.177L240.182 98.1726Z" fill="#F4690B"/>
</g>
</g>
<defs>
<clipPath id="clip0_128_21">
<rect width="254" height="125" fill="white"/>
</clipPath>
</defs>
</svg>
