<svg xmlns="http://www.w3.org/2000/svg" width="35" height="34" viewBox="0 0 76 77" fill="none">
  <g filter="url(#filter0_d_343_45)">
    <g filter="url(#filter1_d_343_45)">
      <path d="M48.1484 50.8436L53.3984 45.5936C54.1056 44.8953 55.0002 44.4172 55.9737 44.2175C56.9473 44.0178 57.9579 44.105 58.8828 44.4686L65.2813 47.0233C66.216 47.4027 67.0174 48.0503 67.5847 48.8845C68.1519 49.7186 68.4595 50.7021 68.4688 51.7108V63.4295C68.4633 64.1157 68.3191 64.7937 68.0447 65.4227C67.7703 66.0517 67.3715 66.6187 66.8722 67.0895C66.373 67.5602 65.7836 67.9251 65.1396 68.1621C64.4956 68.3992 63.8103 68.5034 63.125 68.4686C18.2891 65.6795 9.2422 27.7108 7.53126 13.1795C7.45184 12.466 7.5244 11.7436 7.74418 11.0601C7.96397 10.3766 8.32598 9.74733 8.80642 9.21376C9.28685 8.68019 9.87481 8.25439 10.5316 7.96438C11.1884 7.67436 11.8992 7.5267 12.6172 7.5311H23.9375C24.9477 7.53409 25.9339 7.83923 26.7692 8.40726C27.6046 8.9753 28.2509 9.78026 28.625 10.7186L31.1797 17.117C31.5553 18.0383 31.6511 19.0498 31.4552 20.0252C31.2593 21.0006 30.7803 21.8966 30.0781 22.6014L24.8281 27.8514C24.8281 27.8514 27.8516 48.3123 48.1484 50.8436Z" fill="#000"/>
      <path d="M48.1484 50.8436L53.3984 45.5936C54.1056 44.8953 55.0002 44.4172 55.9737 44.2175C56.9473 44.0178 57.9579 44.105 58.8828 44.4686L65.2813 47.0233C66.216 47.4027 67.0174 48.0503 67.5847 48.8845C68.1519 49.7186 68.4595 50.7021 68.4688 51.7108V63.4295C68.4633 64.1157 68.3191 64.7937 68.0447 65.4227C67.7703 66.0517 67.3715 66.6187 66.8722 67.0895C66.373 67.5602 65.7836 67.9251 65.1396 68.1621C64.4956 68.3992 63.8103 68.5034 63.125 68.4686C18.2891 65.6795 9.2422 27.7108 7.53126 13.1795C7.45184 12.466 7.5244 11.7436 7.74418 11.0601C7.96397 10.3766 8.32598 9.74733 8.80642 9.21376C9.28685 8.68019 9.87481 8.25439 10.5316 7.96438C11.1884 7.67436 11.8992 7.5267 12.6172 7.5311H23.9375C24.9477 7.53409 25.9339 7.83923 26.7692 8.40726C27.6046 8.9753 28.2509 9.78026 28.625 10.7186L31.1797 17.117C31.5553 18.0383 31.6511 19.0498 31.4552 20.0252C31.2593 21.0006 30.7803 21.8966 30.0781 22.6014L24.8281 27.8514C24.8281 27.8514 27.8516 48.3123 48.1484 50.8436Z" fill="url(#paint0_linear_343_45)"/>
    </g>
  </g>
</svg>