<svg xmlns="http://www.w3.org/2000/svg" width="24" height="25" viewBox="0 0 24 25" fill="none">
  <path d="M3 18.9392V5.93921C3 5.57254 3.15 5.29321 3.45 5.10121C3.75 4.90987 4.06667 4.88087 4.4 5.01421L19.8 11.5142C20.2167 11.6975 20.425 12.0058 20.425 12.4392C20.425 12.8725 20.2167 13.1808 19.8 13.3642L4.4 19.8642C4.06667 19.9975 3.75 19.9682 3.45 19.7762C3.15 19.5848 3 19.3058 3 18.9392ZM5 17.4392L16.85 12.4392L5 7.43921V10.9392L11 12.4392L5 13.9392V17.4392ZM5 12.4392V7.43921V17.4392V12.4392Z" fill="white"/>
</svg>
