<svg xmlns="http://www.w3.org/2000/svg" width="24" height="25" viewBox="0 0 24 25" fill="none">
  <path d="M12 5.09375L14.07 9.45313L14.415 10.2344L15.165 10.3516L19.785 11.0469L16.5 14.4062L15.9375 14.9766L16.0725 15.7578L16.86 20.5469L12.7275 18.2891L12 17.9688L11.3025 18.3516L7.16999 20.5781L7.91999 15.7891L8.05499 15.0078L7.49999 14.4062L4.18499 11.0078L8.80499 10.3125L9.55499 10.1953L9.89999 9.41406L12 5.09375ZM12 1.5625L8.58749 8.76562L0.959991 9.91406L6.47999 15.5234L5.17499 23.4375L12 19.7031L18.825 23.4375L17.52 15.5234L23.04 9.92188L15.4125 8.76562L12 1.5625Z" fill="white"/>
</svg>