<svg xmlns="http://www.w3.org/2000/svg" width="671" height="634" viewBox="0 0 671 634" fill="none">
  <path d="M1005.07 -214.879C1028.74 -222.256 1053.66 -211.116 1075.42 -173.137C1096.57 -135.814 1114.55 -71.6424 1110.25 11.7981C1106.14 94.6624 1079.77 196.792 1016.67 296.928C954.574 396.577 855.743 494.225 729.587 557.101C604.738 621.503 466.179 643.736 349.186 629.292C231.361 615.628 135.097 565.298 75.652 502.527C15.474 439.728 -7.89642 364.481 3.23564 300.021C13.7458 234.7 58.7586 180.165 120.81 138.997C183.448 96.9704 257.347 71.847 324.186 48.9387C391.542 26.6313 451.843 6.52634 499.171 -11.6992C546.93 -29.7265 581.712 -45.8839 607.975 -55.7172C634.588 -65.7359 652.673 -69.4275 675.096 -66.9681C696.306 -65.8425 721.599 -60.1536 751.068 -61.731C780.297 -62.875 813.712 -71.2884 845.484 -88.4887C877.37 -105.264 907.625 -130.819 933.137 -156.601C959.143 -181.953 980.382 -207.534 1005.07 -214.879Z" fill="#F4690B"/>
</svg>