<svg xmlns="http://www.w3.org/2000/svg" width="315" height="65" viewBox="0 0 315 65" fill="none">
  <path d="M313.939 4.94343C314.213 4.97713 314.463 4.78226 314.496 4.50818C314.53 4.2341 314.335 3.9846 314.061 3.9509L313.939 4.94343ZM0.925778 61.2873C38.0588 66.8612 64.4682 64.6769 86.1386 58.608C107.796 52.5426 124.697 42.6009 142.771 32.7299C160.852 22.8555 180.142 13.0294 206.652 7.10801C233.165 1.18616 266.927 -0.835946 313.939 4.94343L314.061 3.9509C266.963 -1.8391 233.082 0.179988 206.434 6.13206C179.785 12.0846 160.396 21.9651 142.292 31.8522C124.182 41.7426 107.393 51.6172 85.8689 57.645C64.3577 63.6694 38.0936 65.8553 1.07422 60.2984L0.925778 61.2873Z" fill="#1A202C"/>
</svg>